<svg xmlns="http://www.w3.org/2000/svg" width="500" height="500" style="width:100%;height:100%"><defs><clipPath id="a"><path d="M0 0h500v500H0z"/></clipPath><clipPath id="b"><path d="M0 0h500v500H0z"/></clipPath></defs><g clip-path="url(#a)"><path stroke="#121331" stroke-width="12.6" d="M336.85 241.387c-20.192 25.78-51.601 42.363-86.85 42.363 0 0 0 0 0 0-60.847 0-110.25-49.403-110.25-110.25 0 0 0 0 0 0 0-60.847 49.403-110.25 110.25-110.25 0 0 0 0 0 0 60.847 0 110.25 49.403 110.25 110.25 0 0 0 0 0 0s0 0 0 0c0 25.596-8.744 49.167-23.4 67.887" fill="none" display="block"/><g display="block"><path fill="#08A88A" d="M250 153.25c9.934 0 18 8.066 18 18s-8.066 18-18 18-18-8.066-18-18 8.066-18 18-18z"/><path stroke="#08A88A" stroke-width="12.6" d="M250 153.25c9.934 0 18 8.066 18 18s-8.066 18-18 18-18-8.066-18-18 8.066-18 18-18z" fill="none"/></g><path stroke-linecap="round" stroke-linejoin="round" stroke="#08A88A" stroke-width="12.6" d="M176.875 291.346l73.57 77.625 72.446-76.446" fill="none" display="block"/><path stroke-linecap="round" stroke-linejoin="round" stroke="#08A88A" stroke-width="12.6" d="M176.875 336.346l73.57 77.625 72.446-76.446" fill="none" display="block"/><path stroke-linecap="round" stroke-linejoin="round" stroke="#08A88A" stroke-width="12.6" d="M176.875 381.346l73.57 77.625 72.446-76.446" fill="none" display="block"/></g></svg>